<svg width="25" height="25" viewBox="" xmlns="http://www.w3.org/2000/svg"
     role="img" aria-labelledby="tA dA" fill="none" style="display:block">
  <title id="tA">Administrator</title><desc id="dA">User with shield check badge.</desc>

  <!-- User -->
  <g stroke="currentColor" stroke-width="2" stroke-linecap="round" stroke-linejoin="round">
    <circle cx="10" cy="8" r="3"/>
    <path d="M4 19a6 6 0 0 1 12 0"/>
  </g>

  <!-- Shield + check -->
  <g stroke="var(--admin-accent, #52a8d7)" stroke-linecap="round" stroke-linejoin="round" stroke-width="0.65" vector-effect="non-scaling-stroke" 
  transform="translate(16.2,16.5) scale(1.5) translate(-16.2,-16.5)">
    <path d="M15.2 12.2l3 1v2.2c0 1.8-1.1 3.1-3 3.8-1.9-.7-3-2-3-3.8v-2.2l3-1z"/>
    <path d="M13.9 16.1l1.1 1.1 2-2.2" stroke-width="0.85"/>
  </g>

<!-- Flag badge -->
<g stroke="var(--supervisor-accent, #fab03d)" stroke-width="0.65" stroke-linecap="round" stroke-linejoin="round" vector-effect="non-scaling-stroke" transform="translate(16.2,16.5) scale(2.35) translate(-16.2,-16.5)">
    <path d="M10.2 17.6V13.2"/>
    <path d="M10.2 13h3.2c-.4 .5-.4 1 0 1.5h-3.2z"/>
</g>
  
</svg>


